<?xml version="1.0" encoding="UTF-8" standalone="no"?>
<svg id="svg2" xmlns:rdf="http://www.w3.org/1999/02/22-rdf-syntax-ns#" xmlns="http://www.w3.org/2000/svg" xml:space="preserve" height="43" width="270" version="1.1" xmlns:cc="http://creativecommons.org/ns#" xmlns:dc="http://purl.org/dc/elements/1.1/" viewBox="0 0 270 43"><metadata id="metadata8"><rdf:RDF><cc:Work rdf:about=""><dc:format>image/svg+xml</dc:format><dc:type rdf:resource="http://purl.org/dc/dcmitype/StillImage"/><dc:title/></cc:Work></rdf:RDF></metadata><defs id="defs6"><clipPath id="clipPath18" clipPathUnits="userSpaceOnUse"><path id="path20" d="m0 552.6v-552.6h3471.6v552.6h-3471.6z"/></clipPath></defs><g id="g10" fill="#fff" transform="matrix(.77774 0 0 -.77774 0 43)"><g id="g12" fill="#fff" transform="scale(.1)"><g id="g14" fill="#fff"><g id="g16" clip-path="url(#clipPath18)" fill="#fff"><path id="path22" d="m523.68 486.68c18.84-2.492 29.492-4.141 36.019-7.453 15.563-7.422 19.653-19.793 19.653-53.524v-339.45c0-12.461-6.551-25.672-20.453-32.273-9.008-3.293-22.918-4.9414-35.219-5.7813v-32.148h256.26v32.148c-17.2 2.4883-34.403 4.1407-43.391 8.2617-14.75 6.6094-22.109 20.633-22.109 41.25v149.14h79.371c25.402 0 38.476-7.433 45.859-23.097 6.539-12.371 8.18-33.836 10.648-50.32h28.629v188.09h-28.629c-2.468-19.785-4.941-38.777-11.476-51.14-7.363-14.036-22.102-20.637-45.031-20.637h-79.371v185.36h89.25c70.398 0 104.78-20.637 124.44-98.996h34.391v142.73h-438.84v-32.168"/><path id="path24" d="m1251.2 518.63c-137.79 0-249.48-112.55-249.48-251.4s111.69-251.39 249.48-251.39 249.48 112.55 249.48 251.39c0 138.85-111.69 251.4-249.48 251.4"/><path id="path26" d="m500.64 518.63h-500.64l0.17969-502.95 500.46 0.16c-137.79 0-249.49 112.55-249.49 251.39 0 138.85 111.7 251.4 249.49 251.4"/><path id="path28" d="m1759.7 478.22c5.13 4.207 13.62 6.297 25.42 6.297v-52.832h-0.53c-10.74 0-18.88 2.55-24.36 7.628-5.49 5.086-8.22 11.336-8.22 18.789 0 9.227 2.56 15.918 7.69 20.118zm52.88 6.297h0.37c11.68 0 20.06-2.176 25.14-6.543 5.09-4.395 7.62-11.016 7.62-19.872 0-17.617-10.69-26.417-32.08-26.417h-1.05v52.832zm-28.17-78.536h0.71v-14.363h27.46v14.363h1.05c18.44 0 33.11 4.758 44.04 14.27 10.92 9.512 16.39 22.129 16.39 37.851 0 16.922-5.64 29.825-16.91 38.739-11.29 8.926-26.14 13.39-44.57 13.39v10.821h-27.46v-10.821c-19.36 0-34.46-4.511-45.27-13.554-10.8-9.043-16.2-21.907-16.2-38.575 0-15.722 5.5-28.339 16.54-37.851 11.06-9.512 25.81-14.27 44.22-14.27"/><path id="path30" d="m1977.9 469.98v-75.695h27.48v124.11h-22.89l-60.04-76.074v76.074h-27.46v-124.11h22.5l60.41 75.695"/><path id="path32" d="m2061.8 443.93h55.1v-49.657h27.46v124.12h-27.46v-48.761h-55.1v48.761h-27.46v-124.12h27.46v49.657"/><path id="path34" d="m2226 477.6 15.96-37.039h-32.27l16.31 37.039zm-25.86-60.261h51.89l10.12-23.067h28.69l-54.39 124.11h-20.37l-54.4-124.11h28.36l10.1 23.067"/><path id="path36" d="m2335.7 443.93h55.09v-49.657h27.49v124.12h-27.49v-48.761h-55.09v48.761h-27.46v-124.12h27.46v49.657"/><path id="path38" d="m2504 392.16c11.09 0 21.29 2.219 30.56 6.633 9.3 4.441 16.68 10.731 22.25 18.895l-16.31 17.55c-8.73-10.988-20.13-16.496-34.18-16.496-10.74 0-19.65 3.508-26.66 10.489-7.03 6.945-10.56 16.007-10.56 27.109 0 11.465 3.47 20.605 10.37 27.394 6.91 6.797 15.99 10.204 27.18 10.204 5.34 0 10.69-1.211 16.16-3.641 5.41-2.434 9.9-5.879 13.43-10.383l18.62 17.031c-4.49 7.082-11.21 12.805-20.1 17.102-8.93 4.316-18.95 6.473-30.02 6.473-18.93 0-34.34-6.172-46.27-18.524-11.93-12.355-17.89-27.57-17.89-45.656 0-19.258 5.78-34.773 17.27-46.543 11.52-11.746 26.91-17.637 46.15-17.637"/><path id="path40" d="m2606.1 483.46c6.91 6.973 15.27 10.461 25.08 10.461 9.43 0 17.67-3.488 24.7-10.461 7.03-6.961 10.55-16.016 10.55-27.137 0-11.223-3.38-20.293-10.1-27.219-6.76-6.902-15.13-10.359-25.15-10.359-9.81 0-18.17 3.484-25.08 10.469-6.9 6.961-10.37 16.004-10.37 27.109 0 11.121 3.47 20.176 10.37 27.137zm25.08-91.309c17.81 0 32.91 6.145 45.25 18.449 12.34 12.286 18.52 27.528 18.52 45.723 0 18.328-6.18 33.602-18.52 45.848-12.34 12.219-27.44 18.332-45.25 18.332-17.97 0-33.11-6.192-45.45-18.606-12.35-12.41-18.54-27.597-18.54-45.574 0-18.301 6.23-33.594 18.63-45.82 12.41-12.238 27.5-18.352 45.36-18.352"/><path id="path42" d="m2785.6 422.91c-3.44-1.926-9.22-2.93-17.38-2.93h-23.73v25.196h25.15c7.68 0 13.13-0.988 16.29-2.93 3.21-1.945 4.81-5.129 4.81-9.484 0-4.61-1.72-7.899-5.14-9.852zm-41.11 69.766h23.38c7.2 0 12.15-0.977 14.9-2.91 2.69-1.965 4.06-5.078 4.06-9.317 0-3.312-1.42-5.89-4.24-7.715-2.85-1.828-6.97-2.754-12.4-2.754h-25.7v22.696zm74.94-61.516c0 14.18-5.39 23.809-16.13 28.899 8.04 6.98 12.05 15.828 12.05 26.589 0 21.165-14.3 31.739-42.87 31.739h-55.45v-124.09h54.04c14.75 0 26.5 2.996 35.25 9.031 8.73 6.035 13.11 15.305 13.11 27.832"/><path id="path44" d="m2870.6 451.55h17.87c16.09 0 24.12-5.125 24.12-15.418 0-6.035-1.97-10.227-5.86-12.578-3.9-2.395-10.11-3.575-18.59-3.575h-17.54v31.571zm56.41-46.629c9.41 7.082 14.1 17.488 14.1 31.211 0 12.637-4.44 22.676-13.28 30.039-8.87 7.391-21.82 11.082-38.81 11.082h-18.42v41.144h-27.48v-124.12h44.3c17.01 0 30.21 3.543 39.59 10.645"/><path id="path46" d="m2952.1 394.28h27.469v124.12h-27.469v-124.12z"/><path id="path48" d="m3066 523.54c7.81 0 15.12 2.86 21.99 8.594 6.84 5.742 10.49 12.559 10.96 20.476h-23.03c-0.47-2.957-1.74-5.203-3.79-6.726-2.09-1.543-4.47-2.316-7.2-2.316-5.67 0-9.18 3.007-10.61 9.042h-23.03c1.29-8.855 4.83-15.925 10.63-21.191 5.78-5.242 13.83-7.879 24.08-7.879"/><path id="path50" d="m3091.5 469.98v-75.695h27.46v124.1h-22.85l-60.06-76.051v76.051h-27.46v-124.1h22.5l60.41 75.695"/><path id="path52" d="m1822.4 229.06h-47.29c6.37 14.902 9.9 36.816 10.62 65.773l0.18 6.91h36.49v-72.683zm27.45 98.417h-90.17v-14.914c0-37.461-4.32-65.3-12.92-83.503h-13.47v-46.458h25.69v20.754h79.55v-20.754h25.7v46.458h-14.38v98.417"/><path id="path54" d="m1967.7 279.05v-75.692h27.48v124.12h-22.87l-60.06-76.074v76.074h-27.46v-124.12h22.48l60.43 75.692"/><path id="path56" d="m2051.6 301.75h24.63c15.58 0 23.37-5.594 23.37-16.824 0-11.231-8.14-16.867-24.43-16.867h-23.57v33.691zm0-59.363h23.92c18.07 0 31.35 4.07 39.87 12.293 8.49 8.222 12.75 18.242 12.75 30.051 0 5.574-0.8 10.711-2.4 15.437-1.58 4.727-4.24 9.219-7.97 13.469-3.73 4.265-9.18 7.637-16.41 10.105-7.18 2.492-15.8 3.731-25.84 3.731h-51.38v-124.11h27.46v39.024"/><path id="path58" d="m2244.4 229.06h-68.93v24.816h62.91v24.832h-62.91v23.035h67.33v25.723h-94.79v-124.12h96.39v25.715"/><path id="path60" d="m2326.7 272.5 53.85 54.969h-35.78l-47.67-48.418v48.418h-27.47v-124.12h27.47v41.66l8.86 9.055 41.99-50.715h36.12l-57.37 69.152"/><path id="path62" d="m2491.6 327.47h-107.04v-25.723h39.69v-98.398h27.48v98.398h39.87v25.723"/><path id="path64" d="m2530.3 265.4c0 11.133 3.47 20.176 10.37 27.141 6.91 6.973 15.27 10.469 25.08 10.469 9.45 0 17.67-3.496 24.7-10.469 7.03-6.965 10.57-16.008 10.57-27.141 0-11.23-3.38-20.281-10.12-27.207-6.76-6.914-15.13-10.371-25.15-10.371-9.81 0-18.17 3.477-25.08 10.469-6.9 6.973-10.37 16.016-10.37 27.109zm80.72-45.722c12.32 12.285 18.5 27.531 18.5 45.722 0 18.332-6.18 33.606-18.5 45.84-12.34 12.239-27.44 18.34-45.27 18.34-17.97 0-33.11-6.191-45.45-18.594-12.35-12.41-18.54-27.617-18.54-45.586 0-18.308 6.21-33.582 18.63-45.828 12.41-12.226 27.5-18.351 45.36-18.351 17.83 0 32.93 6.152 45.27 18.457"/><path id="path66" d="m2679.1 301.75h24.63c15.58 0 23.38-5.594 23.38-16.824 0-11.231-8.15-16.867-24.46-16.867h-23.55v33.691zm-27.48-98.387h27.48v39.024h23.9c18.09 0 31.37 4.07 39.87 12.293 8.51 8.222 12.75 18.242 12.75 30.051 0 5.574-0.78 10.711-2.38 15.437-1.6 4.727-4.26 9.219-7.99 13.469-3.71 4.265-9.16 7.637-16.39 10.105-7.2 2.492-15.8 3.731-25.86 3.731h-51.38v-124.11"/><path id="path68" d="m2851.6 248.91 30.31 34.57v-34.57h-30.31zm56.87-45.566v21.632h18.97v23.934h-18.97v78.555h-21.97l-70.33-84.746v-17.743h65.74v-21.632h26.56"/><path id="path70" d="m2980.4 217.72c0 3.789-1.6 7.246-4.77 10.359-3.2 3.156-7.03 4.719-11.52 4.719-4.85 0-8.83-1.543-11.96-4.609-3.12-3.086-4.7-6.555-4.7-10.469 0-4.121 1.58-7.746 4.7-10.82 3.13-3.059 7.11-4.61 11.96-4.61 4.49 0 8.32 1.582 11.52 4.695 3.17 3.137 4.77 6.711 4.77 10.735"/><path id="path72" d="m3032.8 292.72c4.67 6.261 11.13 9.375 19.41 9.375 17.72 0 26.56-12.235 26.56-36.7 0-24.453-8.73-36.687-26.21-36.687-8.26 0-14.78 3.133-19.57 9.394-4.78 6.27-7.18 15.372-7.18 27.293 0 11.954 2.34 21.047 6.99 27.325zm19.76-90.614c17.37 0 30.78 5.821 40.32 17.461 9.51 11.641 14.25 26.922 14.25 45.828 0 18.79-4.82 34.043-14.43 45.754-9.63 11.707-23.12 17.559-40.49 17.559-17.48 0-30.97-5.82-40.49-17.473-9.51-11.64-14.25-26.922-14.25-45.84 0-19.031 4.74-34.335 14.25-45.918 9.52-11.57 23.15-17.371 40.84-17.371"/><path id="path74" d="m1757.7 53.867h-6.23v33.348h7.95c8.39 0 12.22-6.7656 12.22-16.355 0-9.9024-3.83-16.992-13.94-16.992zm7.17 39.141h-38.78v-4.25c2.06-0.332 3.5-0.332 4.68-0.8867 1.86-0.7617 2.74-2.5 2.74-5.2344v-54.844c0-2.8321-0.88-4.5821-2.74-5.3438-1.18-0.4375-3.04-0.6523-4.68-0.7695v-4.25h33.11v4.25c-2.07 0.332-3.69 0.332-5 0.8867-1.87 0.7539-2.73 2.5-2.73 5.2266v20.293h11.89c14.16 0 26.68 9.0313 26.68 23.875 0 14.387-11.98 21.047-25.17 21.047"/><path id="path76" d="m1837.4 23.211h-13.95v30h8.93c2.96 0 5.02-0.9843 6.01-2.9687 0.86-1.6211 1.08-4.4609 1.41-6.6406h4.8v24.875h-4.8c-0.33-2.6289-0.66-5.1368-1.53-6.7774-0.95-1.8359-2.93-2.7265-5.89-2.7265h-8.93v28.254h11.89c9.38 0 13.95-2.7344 16.55-13.098h4.59v18.867h-58.4v-4.2461c2.5-0.332 3.91-0.5391 4.78-0.9883 2.07-0.9844 2.62-2.6172 2.62-5.9961v-53.105c0-3.1641-0.31-4.793-2.4-5.9844-0.98-0.7735-3.38-0.8594-5-0.9883v-4.2578h60.04l1.85 22.246-4.15 0.4414c-4.03-12.559-7.72-16.906-18.42-16.906"/><path id="path78" d="m1887.9 49.383 10.47 27.375 9.38-27.375h-19.85zm45.24-21.582-24.42 66.621h-9.16l-26.46-66.621c-1-2.7227-2.19-4.1485-4.35-4.9102-1.21-0.4414-2.74-1.0859-4.39-1.2031v-4.2578h24.76v4.2578c-2.52 0.3242-5.24 0.4414-6.22 0.7617-2.93 0.7617-4.16 2.7266-3.16 5.3516l6 15.801h23.96l5.45-15.801c0.88-2.625-0.43-4.2774-2.5-5.1328-1.21-0.4414-3.16-0.6563-5.35-0.9805v-4.2578h34.33v4.2578c-1.66 0.1172-3.06 0.6563-4.23 1.2031-2.11 0.7617-3.28 1.961-4.26 4.9102"/><path id="path80" d="m1957 88.758c2.19-0.125 3.71-0.2226 4.9-0.9961 1.64-0.8672 2.5-2.2929 2.5-5.0195-0.55-35.43-3.69-48.066-13.61-50.359-5.12-1.3203-7.74-4.3555-7.74-9.0625 0-3.8086 2.62-7.0898 7.52-7.0898 15.16 0 18.83 19.305 19.73 71.328h23.1v-59.766c0-2.7266-0.87-4.4727-2.73-5.3438-1.19-0.4375-3.05-0.6523-4.69-0.7695v-4.25h32.81v4.25c-1.85 0.332-3.71 0.4375-4.68 0.8789-1.88 0.8789-2.74 2.293-2.74 5.2344v54.844c0 2.7344 0.86 4.5781 2.62 5.3399 1.19 0.4492 3.14 0.6562 4.8 0.7812v4.25h-61.79v-4.25"/><path id="path82" d="m2061.3 23.211h-6.23v33.703h7.99c8.38 0 12.4-7.0899 12.4-16.582 0-10.031-3.9-17.121-14.16-17.121zm6.76 39.484h-12.99v19.941c0 2.9492 0.9 4.3672 2.76 5.2227 1.19 0.5586 3.02 0.7734 4.69 0.9101v4.2383h-32.8v-4.2383c1.84-0.3515 3.69-0.3515 4.67-0.7929 1.86-0.8477 2.73-2.5977 2.73-5.3399v-54.844c0-2.9414-0.87-4.3555-2.73-5.2266-1.19-0.5547-3.05-0.7695-4.67-0.8789v-4.2656h36.92c14.61 0 27.26 9.0625 27.26 23.996 0 14.41-12.22 21.277-25.84 21.277"/><path id="path84" d="m2150.9 88.75c1.86-0.3242 3.71-0.4297 4.69-0.8711 1.86-0.8594 2.74-2.293 2.74-5.2422v-22.988h-30.75v22.988c0 2.7344 0.88 4.5899 2.62 5.3516 1.21 0.4375 3.16 0.6523 4.81 0.7617v4.2578h-32.8v-4.2578c1.84-0.3242 3.69-0.4297 4.67-0.8711 1.76-0.8594 2.73-2.293 2.73-5.2422v-54.836c0-2.7227-0.85-4.4727-2.73-5.3399-1.19-0.4414-3.05-0.6562-4.67-0.7812v-4.2383h32.8v4.2383c-1.86 0.3398-3.72 0.4492-4.69 0.8867-1.86 0.8594-2.74 2.2852-2.74 5.2344v26.262h30.75v-26.262c0-2.7227-0.88-4.5899-2.62-5.3399-1.21-0.4414-3.17-0.6562-4.81-0.7812v-4.2383h32.82v4.2383c-1.86 0.3398-3.71 0.4492-4.69 0.8867-1.76 0.8594-2.74 2.2852-2.74 5.2344v54.836c0 2.7344 0.88 4.4727 2.74 5.3516 0.98 0.4375 3.03 0.6523 4.69 0.7617v4.2578h-32.82v-4.2578"/><path id="path86" d="m2212.4 49.383 10.47 27.375 9.37-27.375h-19.84zm45.21-21.582-24.39 66.621h-9.16l-26.49-66.621c-0.95-2.7227-2.16-4.1485-4.33-4.9102-1.19-0.4414-2.74-1.0859-4.38-1.2031v-4.2578h24.75v4.2578c-2.52 0.3242-5.24 0.4414-6.21 0.7617-2.93 0.7617-4.14 2.7266-3.19 5.3516l6.02 15.801h23.96l5.45-15.801c0.88-2.625-0.43-4.2774-2.52-5.1328-1.19-0.4414-3.12-0.6563-5.31-0.9805v-4.2578h34.32v4.2578c-1.64 0.1172-3.05 0.6563-4.24 1.2031-2.09 0.7617-3.28 1.961-4.28 4.9102"/><path id="path88" d="m2316.1 87.227v-32.059h-5.78c-10.57 0-15.04 6.4336-15.04 16.148 0 9.4766 4.78 15.91 15.58 15.91h5.24zm-39.26-16.141c0-9.582 5.92-16.156 14.73-18.762l-13.95-22.129c-3.59-5.5586-6.31-7.6289-10.99-8.3789l-0.34-4.3867h22.78l19.06 31.953h7.97v-21.59c0-2.9492-0.9-4.3672-2.72-5.2266-1.21-0.5547-3.06-0.75-4.68-0.8867v-4.25h32.77v4.25c-1.86 0.332-3.69 0.332-4.69 0.7812-1.85 0.8594-2.71 2.6055-2.71 5.3321v54.852c0 2.9297 0.86 4.3594 2.71 5.2149 1.21 0.5664 3.07 0.7734 4.69 0.8906v4.2578h-38.24c-16.14 0-26.39-8.7226-26.39-21.922"/><path id="path90" d="m2378.3 71.512h3.9c2.72 10.492 7.76 16.359 17.89 16.359h3.38v-60.07c0-2.8399-0.88-4.5781-2.63-5.3516-1.22-0.4297-3.03-0.6445-4.69-0.7617v-4.2578h32.69v4.2578c-2.05 0.332-3.38 0.332-4.57 0.8711-1.85 0.7695-2.83 2.5078-2.83 5.2422v60.07h3.6c10.13 0 15.13-5.8672 17.87-16.359h3.92v21.484h-68.53v-21.484"/><path id="path92" d="m2486.9 53.867h-6.23v33.348h7.97c8.38 0 12.2-6.7656 12.2-16.355 0-9.9024-3.82-16.992-13.94-16.992zm7.19 39.141h-38.79v-4.25c2.07-0.332 3.49-0.332 4.67-0.8867 1.85-0.7617 2.75-2.5 2.75-5.2344v-54.844c0-2.8321-0.9-4.5821-2.75-5.3438-1.18-0.4375-3.03-0.6523-4.67-0.7695v-4.25h33.1v4.25c-2.07 0.332-3.69 0.332-4.98 0.8867-1.87 0.7539-2.75 2.5-2.75 5.2266v20.293h11.89c14.16 0 26.68 9.0313 26.68 23.875 0 14.387-11.99 21.047-25.15 21.047"/><path id="path94" d="m2545 49.383 10.47 27.375 9.36-27.375h-19.83zm45.22-21.582-24.4 66.621h-9.16l-26.48-66.621c-0.98-2.7227-2.17-4.1485-4.34-4.9102-1.21-0.4414-2.75-1.0859-4.37-1.2031v-4.2578h24.75v4.2578c-2.52 0.3242-5.26 0.4414-6.22 0.7617-2.95 0.7617-4.16 2.7266-3.18 5.3516l6.02 15.801h23.96l5.45-15.801c0.86-2.625-0.43-4.2774-2.52-5.1328-1.19-0.4414-3.14-0.6563-5.31-0.9805v-4.2578h34.3v4.2578c-1.63 0.1172-3.05 0.6563-4.24 1.2031-2.07 0.7617-3.25 1.961-4.26 4.9102"/><path id="path96" d="m2653.7 88.75c1.87-0.3242 3.71-0.4297 4.68-0.8711 1.86-0.8594 2.74-2.293 2.74-5.2422v-22.988h-30.74v22.988c0 2.7344 0.89 4.5899 2.61 5.3516 1.21 0.4375 3.17 0.6523 4.81 0.7617v4.2578h-32.8v-4.2578c1.86-0.3242 3.7-0.4297 4.67-0.8711 1.76-0.8594 2.74-2.293 2.74-5.2422v-54.836c0-2.7227-0.86-4.4727-2.74-5.3399-1.19-0.4414-3.02-0.6562-4.67-0.7812v-4.2383h32.8v4.2383c-1.84 0.3398-3.71 0.4492-4.69 0.8867-1.84 0.8594-2.73 2.2852-2.73 5.2344v26.262h30.74v-26.262c0-2.7227-0.88-4.5899-2.62-5.3399-1.21-0.4414-3.16-0.6562-4.8-0.7812v-4.2383h32.79v4.2383c-1.84 0.3398-3.69 0.4492-4.67 0.8867-1.74 0.8594-2.71 2.2852-2.71 5.2344v54.836c0 2.7344 0.88 4.4727 2.71 5.3516 0.98 0.4375 3.05 0.6523 4.67 0.7617v4.2578h-32.79v-4.2578"/><path id="path98" d="m2697.1 54.402c0-23.543 16.47-38.609 39.57-38.609 10.12 0 18.75 2.8398 24.85 7.7422v17.332h-4.69c-2.97-10.234-9.26-19.512-19.82-19.512-14.83 0-20.39 13.867-20.39 34.797 0 17.442 5.35 33.145 20.39 33.145 9.68 0 16.01-6.9727 19.82-20.606h4.69v20.156c-6.86 3.9531-14.83 5.8867-23.54 5.8867-23.42 0-40.88-15.789-40.88-40.332"/><path id="path100" d="m2828.4 32.285v46.008c12.95-0.3321 20.16-8.3047 20.16-22.816 0-13.504-6.31-22.891-20.16-23.191zm-17.65 0c-12.97 0.3007-20.14 8.2617-20.14 22.773 0 13.406 6.21 22.902 20.14 23.234v-46.008zm17.65 50.898v0.5469c0 2.7422 0.86 4.4804 2.72 5.3515 1.21 0.4297 3.07 0.6446 4.69 0.7618v4.246h-32.37v-4.246c1.76-0.3321 3.62-0.4415 4.59-0.8711 1.86-0.8672 2.72-2.3047 2.72-5.2422v-0.5469c-28.11-0.332-39.55-11.555-39.55-28.77 0-16.152 12.61-27.043 39.55-27.043v-0.6602c0-2.7265-0.86-4.582-2.6-5.3554-1.21-0.4375-3.28-0.6524-4.71-0.7617v-4.2579h32.37v4.2579c-1.84 0.3242-3.71 0.4414-4.69 0.8789-1.74 0.8632-2.72 2.2968-2.72 5.2382v0.6602c28.21 0.3242 39.67 11.438 39.67 28.781 0 16.133-12.65 27.031-39.67 27.031"/><path id="path102" d="m2915.3 21.141c-15.26 0-19.49 13.527-19.49 34.465 0 17.988 3.38 34.012 19.72 34.012 16.14 0 20.04-15.477 20.04-34.793 0-16.348-3.16-33.684-20.27-33.684zm0.88 73.606c-22.46 0-39.9-15.383-39.9-40.117 0-24.113 16.58-38.828 38.59-38.828 23.42 0 40.19 16.699 40.19 40.02 0 23.016-16.11 38.926-38.88 38.926"/><path id="path104" d="m2997.3 53.867h-6.21v33.348h7.95c8.38 0 12.21-6.7656 12.21-16.355 0-9.9024-3.83-16.992-13.95-16.992zm7.17 39.141h-38.75v-4.25c2.05-0.332 3.48-0.332 4.67-0.8867 1.83-0.7617 2.73-2.5 2.73-5.2344v-54.844c0-2.8321-0.9-4.5821-2.73-5.3438-1.19-0.4375-3.05-0.6523-4.67-0.7695v-4.25h33.08v4.25c-2.05 0.332-3.67 0.332-5 0.8867-1.85 0.7539-2.71 2.5-2.71 5.2266v20.293h11.87c14.16 0 26.7 9.0313 26.7 23.875 0 14.387-11.99 21.047-25.19 21.047"/><path id="path106" d="m3084.2 51.894-20.93 41.102h-26.68v-4.1406c3.16-0.3203 5.76-1.1992 7.18-2.625 1.64-1.4063 2.5-3.9063 2.5-7.5196v-46.875c0-4.6992-1.74-7.2187-4.24-8.5078-1.87-0.9843-3.92-1.5234-6.21-1.8554v-4.0313h28.23v4.0313c-2.85 0.332-5.14 1.0859-6.98 2.2851-2.18 1.418-3.47 3.8086-3.47 8.0781v44.922l23.2-45.254h4.57l22.99 45.352v-49.055c0-2.7344-0.86-4.4727-2.74-5.3516-0.97-0.4297-3.04-0.6445-4.66-0.7617v-4.2461h32.77v4.2461c-1.84 0.332-3.69 0.4297-4.69 0.8711-1.72 0.8594-2.71 2.293-2.71 5.2422v54.836c0 2.7344 0.9 4.4727 2.62 5.3399 1.21 0.4414 3.16 0.664 4.78 0.7734v4.2461h-24.73l-20.8-41.102"/><path id="path108" d="m3158.5 49.383 10.47 27.375 9.37-27.375h-19.84zm45.24-21.582-24.42 66.621h-9.14l-26.48-66.621c-0.98-2.7227-2.19-4.1485-4.36-4.9102-1.21-0.4414-2.73-1.0859-4.35-1.2031v-4.2578h24.72v4.2578c-2.5 0.3242-5.23 0.4414-6.19 0.7617-2.97 0.7617-4.16 2.7266-3.18 5.3516l5.99 15.801h23.99l5.45-15.801c0.86-2.625-0.43-4.2774-2.52-5.1328-1.19-0.4414-3.15-0.6563-5.32-0.9805v-4.2578h34.3v4.2578c-1.62 0.1172-3.05 0.6563-4.26 1.2031-2.05 0.7617-3.24 1.961-4.23 4.9102"/><path id="path110" d="m3290.8 82.644c0 2.9493 0.99 4.3594 2.75 5.2266 0.98 0.4375 2.83 0.5547 4.67 0.8789v4.2578h-32.8v-4.2578c1.63-0.1289 3.72-0.3242 4.69-0.7617 1.86-0.8789 2.72-2.6172 2.72-5.3438v-59.637h-28.99v59.637c0 2.9493 0.88 4.3594 2.74 5.2266 0.97 0.4375 2.83 0.5547 4.68 0.8789v4.2578h-32.81v-4.2578c1.64-0.1289 3.5-0.3242 4.69-0.7617 1.87-0.8789 2.73-2.6172 2.73-5.3438v-54.844c0-2.9492-0.97-4.375-2.73-5.2344-0.98-0.4297-2.83-0.5469-4.69-0.8867v-4.25h61.15c10.77-0.332 15.14-6.5313 17.64-17.43h3.93v23.008h-10.37v59.637"/><path id="path112" d="m3335.6 33.574v49.07c0 2.7266 0.84 4.5821 2.6 5.3321 1.19 0.4492 3.16 0.6445 4.78 0.7812v4.25h-32.79v-4.25c1.84-0.332 3.71-0.4492 4.69-0.8789 1.74-0.875 2.71-2.2851 2.71-5.2344v-54.863c0-2.7149-0.86-4.461-2.71-5.3204-1.21-0.4492-3.05-0.6445-4.69-0.7734v-4.2461h22.77l33.23 59.316v-48.976c0-2.7149-0.86-4.5782-2.62-5.3204-1.19-0.4492-3.26-0.6445-4.65-0.7734v-4.2461h32.66v4.2461c-1.84 0.3242-3.58 0.4414-4.57 0.8711-1.86 0.8789-2.83 2.2852-2.83 5.2227v54.863c0 2.7266 0.89 4.4727 2.71 5.3321 1.21 0.4492 3.28 0.6445 4.69 0.7812v4.25h-22.66l-33.32-59.434"/><path id="path114" d="m3446.2 55.168h-5.79c-10.54 0-15.03 6.4336-15.03 16.148 0 9.4766 4.78 15.91 15.58 15.91h5.24v-32.059zm20.7 32.691c1.19 0.5664 3.05 0.7734 4.69 0.8906v4.2578h-38.25c-16.13 0-26.36-8.7226-26.36-21.922 0-9.582 5.88-16.156 14.7-18.762l-13.92-22.129c-3.63-5.5586-6.35-7.6289-11.04-8.3789l-0.33-4.3867h22.77l19.09 31.953h7.95v-21.59c0-2.9492-0.88-4.3672-2.72-5.2266-1.21-0.5547-3.07-0.75-4.69-0.8867v-4.25h32.8v4.25c-1.88 0.332-3.71 0.332-4.69 0.7812-1.84 0.8594-2.74 2.6055-2.74 5.3321v54.852c0 2.9297 0.9 4.3594 2.74 5.2149"/></g></g></g></g></svg>
